HIERARCHY
ROOT Hips
{
	OFFSET 0.000000 0.000000 0.000000 
	CHANNELS 6 Xposition Yposition Zposition Zrotation Yrotation Xrotation
	JOINT LeftUpLeg
	{
		OFFSET 1.363060 -1.794630 0.839290 
		CHANNELS 3 Zrotation Yrotation Xrotation
		JOINT LeftLeg
		{
			OFFSET 2.448110 -6.726130 0.000000 
			CHANNELS 3 Zrotation Yrotation Xrotation
			JOINT LeftFoot
			{
				OFFSET 2.562200 -7.039590 0.000000 
				CHANNELS 3 Zrotation Yrotation Xrotation
				JOINT LeftToeBase
				{
					OFFSET 0.157640 -0.433110 2.322550 
					CHANNELS 3 Zrotation Yrotation Xrotation
					End Site
					{
						OFFSET 0.000000 0.000000 0.000000 
					}
				}
			}
		}
	}
	JOINT RightUpLeg
	{
		OFFSET -1.305520 -1.794630 0.839290 
		CHANNELS 3 Zrotation Yrotation Xrotation
		JOINT RightLeg
		{
			OFFSET -2.542530 -6.985550 0.000000 
			CHANNELS 3 Zrotation Yrotation Xrotation
			JOINT RightFoot
			{
				OFFSET -2.568260 -7.056230 0.000000 
				CHANNELS 3 Zrotation Yrotation Xrotation
				JOINT RightToeBase
				{
					OFFSET -0.164730 -0.452590 2.363150 
					CHANNELS 3 Zrotation Yrotation Xrotation
					End Site
					{
						OFFSET 0.000000 0.000000 0.000000 
					}
				}
			}
		}
	}
	JOINT Spine
	{
		OFFSET 0.028270 2.035590 -0.193380 
		CHANNELS 3 Zrotation Yrotation Xrotation
		JOINT Spine1
		{
			OFFSET 0.056720 2.048850 -0.042750 
			CHANNELS 3 Zrotation Yrotation Xrotation
			JOINT Neck1
			{
				OFFSET -0.054170 1.746240 0.172020 
				CHANNELS 3 Zrotation Yrotation Xrotation
				JOINT Head
				{
					OFFSET 0.104070 1.761360 -0.123970 
					CHANNELS 3 Zrotation Yrotation Xrotation
					End Site
					{
						OFFSET 0.000000 0.000000 0.000000 
					}
				}
			}
			JOINT LeftArm
			{
				OFFSET 3.362410 1.200890 -0.311210 
				CHANNELS 3 Zrotation Yrotation Xrotation
				JOINT LeftForeArm
				{
					OFFSET 4.983000 -0.000000 -0.000000 
					CHANNELS 3 Zrotation Yrotation Xrotation
					JOINT LeftHand
					{
						OFFSET 3.483560 -0.000000 -0.000000 
						CHANNELS 3 Zrotation Yrotation Xrotation
						JOINT LeftHandIndex1
						{
							OFFSET 0.715260 -0.000000 -0.000000 
							CHANNELS 3 Zrotation Yrotation Xrotation
							End Site
							{
								OFFSET 0.000000 0.000000 0.000000 
							}
						}
					}
				}
			}
			JOINT RightArm
			{
				OFFSET -3.136600 1.374050 -0.404650 
				CHANNELS 3 Zrotation Yrotation Xrotation
				JOINT RightForeArm
				{
					OFFSET -5.241900 -0.000000 -0.000000 
					CHANNELS 3 Zrotation Yrotation Xrotation
					JOINT RightHand
					{
						OFFSET -3.444170 -0.000000 -0.000000 
						CHANNELS 3 Zrotation Yrotation Xrotation
						JOINT RightHandIndex1
						{
							OFFSET -0.622530 -0.000000 -0.000000 
							CHANNELS 3 Zrotation Yrotation Xrotation
							End Site
							{
								OFFSET 0.000000 0.000000 0.000000 
							}
						}
					}
				}
			}
		}
	}
}
MOTION
Frames: 16
Frame Time: 0.041667
7.825601 17.842994 -18.924374 1.188982 -78.695305 0.836836 -24.797732 -10.117694 -18.598798 9.481220 13.598758 48.183787 -1.200585 -7.792962 -7.107758 0.837200 -5.836700 -16.311400 27.180802 4.027015 -14.196009 -9.968248 -14.518629 50.690977 -0.597713 -1.605916 -14.587211 -0.733200 5.470700 -15.256100 3.618130 0.317130 10.165218 0.845891 0.784911 -11.619823 3.028238 8.949088 25.132447 3.760400 4.071500 10.721900 -60.744531 4.060919 -8.066058 36.323756 -48.528453 -10.530197 0.170801 3.759380 -17.965685 -7.125000 0.000000 0.000000 61.368048 -6.893347 -30.248580 -31.954048 45.749403 -8.528523 -0.397611 -1.091871 -26.089207 7.125000 0.000000 0.000000 
7.837399 17.798663 -18.974144 0.004200 -78.748950 1.934322 -25.198636 -10.275634 -18.924487 9.689263 13.836147 49.148915 -1.545828 -9.123967 -6.277380 0.885100 -5.997000 -16.775800 27.888480 4.231423 -14.745277 -10.147906 -14.690524 51.567545 -0.535238 -1.269058 -13.965482 -0.671900 5.241600 -14.598800 4.036448 0.250851 10.274221 0.841303 0.755337 -11.498411 3.458060 8.803051 26.119497 3.892300 4.069500 11.103000 -63.213538 3.794312 -7.547862 34.668137 -46.999149 -9.620495 0.276684 3.715145 -16.996393 -7.125000 0.000000 0.000000 63.798447 -6.468974 -29.611080 -31.539964 45.372327 -8.469810 -0.427521 -1.041799 -26.635323 7.125000 0.000000 0.000000 
7.853067 17.738294 -19.019028 -0.517437 -78.815871 2.213593 -25.804578 -10.342360 -18.970789 9.874085 14.022492 49.945219 -1.889143 -10.463391 -5.414811 0.948400 -6.202200 -17.372300 28.423916 4.601968 -15.060114 -10.340075 -14.867291 52.478913 -0.458779 -0.777245 -13.169513 -0.637000 5.106500 -14.212600 4.755575 0.195985 10.362658 0.774795 0.734462 -11.444289 4.113806 8.848419 25.359532 4.081600 4.140200 10.792800 -65.794317 3.586414 -7.027448 33.114611 -45.480368 -8.797594 0.395330 3.649345 -15.803755 -7.125000 0.000000 0.000000 65.976351 -6.208933 -28.843868 -31.243342 45.058228 -8.437536 -0.454734 -1.032862 -27.428045 7.125000 0.000000 0.000000 
7.865878 17.665576 -19.065111 -0.232492 -78.991721 2.038830 -26.484003 -10.212897 -19.345972 10.035614 14.189787 50.604084 -2.252791 -11.872225 -4.464882 0.818000 -5.771000 -16.121500 28.718305 5.202233 -15.845155 -10.570652 -15.060761 53.526670 -0.370089 -0.188040 -12.059790 -0.554500 4.770000 -13.253600 4.652678 0.437182 10.060937 0.675321 0.824057 -11.304505 4.183090 8.668286 24.851837 4.017800 4.068600 10.588400 -67.672437 3.276748 -5.423518 31.539898 -43.806720 -7.937262 0.478142 3.634337 -15.191854 -7.125000 0.000000 0.000000 68.413337 -6.518834 -28.176560 -31.009737 44.748576 -8.421569 -0.484779 -1.026162 -28.725355 7.125000 0.000000 0.000000 
7.876569 17.572765 -19.112668 -0.155627 -79.250418 2.142408 -27.056826 -9.942540 -19.813570 10.165575 14.322225 51.143506 -2.608403 -13.275161 -3.955009 0.727000 -5.447900 -15.190700 28.989325 5.786129 -16.869637 -10.817555 -15.252088 54.642814 -0.305093 0.203340 -10.938581 -0.493200 4.502900 -12.495900 4.695990 0.654419 10.304875 0.685088 0.938770 -10.932908 3.883134 8.490768 24.426396 3.889800 3.948400 10.522700 -69.650406 2.604111 -4.170929 29.877106 -41.984218 -7.028731 0.486526 3.638139 -14.612476 -7.125000 0.000000 0.000000 70.893646 -6.343681 -27.711556 -30.642908 44.380289 -8.348763 -0.511505 -0.994074 -29.950421 7.125000 0.000000 0.000000 
7.890670 17.473134 -19.159396 0.400375 -79.451260 1.411452 -27.790468 -9.670700 -19.826774 10.274875 14.401858 51.532108 -2.840555 -14.194184 -3.095417 0.557200 -4.781400 -13.286100 29.117476 6.138439 -17.567288 -11.055705 -15.453739 55.788696 -0.294033 0.129873 -10.059633 -0.451800 4.312300 -11.957100 5.086213 0.634581 11.003413 0.978668 1.002356 -10.636451 2.520129 8.942730 24.098339 3.604000 3.986100 10.530100 -72.502718 1.834369 -4.912561 28.427705 -40.471032 -6.304821 0.462847 3.562085 -12.896437 -7.125000 0.000000 0.000000 73.098695 -5.633517 -27.080842 -30.152967 43.960440 -8.229177 -0.533875 -0.968978 -30.875536 7.125000 0.000000 0.000000 
7.905601 17.372857 -19.205387 0.768095 -79.797909 0.801956 -28.496241 -9.098476 -19.742604 10.355961 14.457593 51.789970 -2.922030 -14.524051 -2.068110 0.365100 -3.881200 -10.742600 29.236645 6.697846 -18.126788 -11.293715 -15.662784 56.975764 -0.330753 -0.424034 -9.381697 -0.361600 3.863100 -10.691900 5.268692 0.681500 11.390507 1.030040 1.044193 -10.522243 2.493562 9.095692 23.278285 3.601800 4.043900 10.296100 -75.157626 1.442816 -5.432374 27.296358 -39.279603 -5.806353 0.626959 3.432821 -11.759395 -7.125000 0.000000 0.000000 75.331298 -5.228259 -26.138474 -29.713022 43.541115 -8.117103 -0.559003 -0.963887 -32.002053 7.125000 0.000000 0.000000 
7.921362 17.258756 -19.249903 4.445449 -80.154312 -3.058228 -29.821339 -8.417251 -19.405201 10.363416 14.483437 51.876398 -2.904599 -14.581614 -1.913652 0.406900 -4.095200 -11.344700 28.698188 7.387363 -18.627709 -11.529295 -15.885592 58.212752 -0.402054 -1.364097 -9.024494 -0.219500 3.015700 -8.322500 4.208847 0.825428 11.655277 1.217017 1.103665 -10.581698 3.313409 9.123627 23.143748 3.787500 4.164100 10.249200 -77.205668 1.251738 -5.000139 26.332144 -38.172826 -5.370736 0.778819 3.348854 -11.841035 -7.125000 0.000000 0.000000 77.738978 -5.042398 -25.095276 -29.296683 43.141766 -8.020840 -0.587889 -0.954043 -33.275604 7.125000 0.000000 0.000000 
7.935924 17.129171 -19.293774 9.350868 -80.396105 -8.119500 -31.252735 -7.871931 -19.023906 10.347559 14.503461 51.939061 -2.896478 -14.715965 -2.261675 0.637400 -5.108000 -14.216800 27.999055 7.954024 -19.108560 -11.733685 -16.100087 59.365947 -0.495838 -2.683941 -8.903825 -0.096100 1.999400 -5.504100 2.852237 0.942760 11.888061 1.675976 1.172634 -10.627661 3.078528 9.133618 23.963485 3.674100 4.198300 10.594200 -79.147457 1.136581 -4.559128 25.480141 -37.119888 -4.953501 0.653944 3.341956 -12.133981 -7.125000 0.000000 0.000000 80.182884 -4.833883 -23.988028 -28.899962 42.792026 -7.951105 -0.610172 -0.944160 -34.576878 7.125000 0.000000 0.000000 
7.946984 16.995716 -19.337000 7.510707 -80.802296 -6.425188 -31.346477 -7.456963 -19.146513 10.386127 14.566561 52.212536 -2.881328 -14.705177 -2.603065 0.727500 -5.449800 -15.196100 28.535909 8.477510 -19.524515 -11.890967 -16.242487 60.242763 -0.575092 -4.238456 -8.816149 -0.014300 0.773200 -2.124900 3.478698 0.893661 12.226466 1.595717 1.157081 -10.398843 3.336932 9.366305 23.735335 3.773900 4.328700 10.503400 -81.428457 1.023623 -4.546637 24.684530 -36.150059 -4.612306 0.513200 3.289829 -12.117531 -7.125000 0.000000 0.000000 82.276639 -4.524675 -22.263884 -28.423787 42.291418 -7.800894 -0.626884 -0.973425 -36.389386 7.125000 0.000000 0.000000 
7.957214 16.853412 -19.380871 6.267724 -81.027330 -5.265622 -31.538276 -7.267626 -19.349898 10.439617 14.645644 52.569268 -2.782143 -14.380735 -2.855287 0.687800 -5.302200 -14.772500 28.864987 8.914487 -19.985010 -12.033781 -16.370724 61.044885 -0.628359 -5.743605 -8.890903 -0.001300 0.230600 -0.633600 4.074250 0.736161 12.761448 1.552263 1.098006 -10.086628 3.544602 9.507021 22.442726 3.824300 4.393800 10.135400 -83.760934 0.826780 -4.621871 24.123444 -35.505350 -4.402159 0.478877 3.217951 -12.193711 -7.125000 0.000000 0.000000 84.181873 -4.194385 -20.021150 -27.912408 41.722286 -7.620126 -0.641721 -1.022091 -38.500342 7.125000 0.000000 0.000000 
7.964034 16.695901 -19.422714 9.241958 -81.078170 -8.185278 -32.376331 -7.385847 -19.474602 10.502584 14.743510 53.000267 -2.609661 -13.822058 -2.920027 0.636100 -5.102800 -14.202000 28.409117 9.347496 -20.539967 -12.189859 -16.527456 61.915153 -0.660451 -7.164204 -9.456445 -0.018300 0.873600 -2.401000 3.310000 0.716880 13.226443 1.901396 1.103092 -9.786456 2.001987 9.608303 21.266271 3.299100 4.335600 10.043900 -85.811302 0.510763 -4.413119 23.602640 -34.878016 -4.173249 0.479338 3.171875 -12.372942 -7.125000 0.000000 0.000000 86.420241 -3.734780 -18.598855 -27.399441 41.259066 -7.472871 -0.651231 -1.012895 -39.602835 7.125000 0.000000 0.000000 
7.972329 16.521523 -19.460686 10.748863 -81.164749 -9.701196 -32.884837 -7.765413 -19.533172 10.564252 14.888208 53.632397 -2.385920 -13.167551 -4.538336 1.093300 -6.644800 -18.667200 28.141774 9.778704 -20.886865 -12.427228 -16.684430 62.842479 -0.619884 -6.614400 -10.187433 -0.067700 1.678900 -4.619000 2.746001 0.700235 13.638997 1.934236 1.069886 -9.528012 1.601655 9.804270 21.241038 3.207800 4.382200 10.065700 -87.848147 0.128372 -4.121566 22.916360 -34.039889 -3.885093 0.588073 3.107710 -12.651572 -7.125000 0.000000 0.000000 88.835704 -2.942794 -18.000242 -26.671148 40.605043 -7.202827 -0.652018 -0.989576 -39.854538 7.125000 0.000000 0.000000 
7.984495 16.333413 -19.500686 9.610671 -81.334211 -8.559502 -32.911649 -8.186432 -19.613153 10.670677 15.108030 54.596896 -2.114161 -12.537326 -7.471230 1.273900 -7.153300 -20.170200 28.229303 10.343571 -21.131029 -12.716548 -16.852276 63.867119 -0.559499 -5.533254 -11.869866 -0.309200 3.574900 -9.883700 3.146066 0.535900 13.896734 1.784277 0.978318 -9.382781 2.805842 9.767387 21.814249 3.592200 4.469500 10.233000 -89.999444 -0.064914 -3.653054 22.330796 -33.344468 -3.672365 0.673248 3.031669 -13.414428 -7.125000 0.000000 0.000000 90.759249 -2.194336 -16.733952 -25.834067 39.782557 -6.858611 -0.651201 -1.023470 -40.453868 7.125000 0.000000 0.000000 
7.998320 16.142262 -19.543543 5.012201 -81.688018 -3.910303 -32.243268 -8.468683 -19.907877 10.839187 15.403782 55.931398 -1.690829 -11.777745 -11.894320 1.875500 -8.601800 -24.557400 28.864038 10.948260 -21.294535 -13.040834 -17.031480 64.993475 -0.523613 -4.195497 -14.315850 -0.697700 5.339500 -14.879500 4.074215 0.484322 13.918011 1.506952 0.954141 -9.266433 2.812293 9.858790 22.454122 3.651500 4.516800 10.526300 -91.890735 -0.304297 -3.261457 21.699600 -32.563318 -3.435991 0.652301 2.966328 -13.591853 -7.125000 0.000000 0.000000 92.430527 -1.894412 -14.630248 -25.252865 39.118133 -6.605536 -0.746793 -1.072246 -41.525864 7.125000 0.000000 0.000000 
8.016477 15.949267 -19.582806 0.040780 -82.018064 1.137750 -31.454462 -8.912006 -20.366054 11.100253 15.757781 57.561419 -1.075132 -10.416345 -16.137318 2.188400 -9.248000 -26.574100 29.494185 11.228695 -21.486655 -13.403057 -17.245580 66.337477 -0.566944 -3.328681 -17.152605 -1.092800 6.643400 -18.663100 4.623682 0.569864 13.611417 1.145629 0.967557 -9.316600 2.063899 9.960079 21.945568 3.396600 4.510500 10.450300 -93.491204 -0.549102 -3.152414 20.885776 -31.472782 -3.083591 0.674951 2.921832 -12.698402 -7.125000 0.000000 0.000000 94.270771 -1.761912 -13.121338 -24.689405 38.428399 -6.324039 -0.890458 -1.112704 -41.903997 7.125000 0.000000 0.000000 
